<?xml version="1.0" standalone="no"?>
<!DOCTYPE svg PUBLIC "-//W3C//DTD SVG 20010904//EN"
 "http://www.w3.org/TR/2001/REC-SVG-20010904/DTD/svg10.dtd">
<svg version="1.0" xmlns="http://www.w3.org/2000/svg"
 width="300.000000pt" height="292.000000pt" viewBox="0 0 300.000000 292.000000"
 preserveAspectRatio="xMidYMid meet">
<metadata>
Created by potrace 1.10, written by Peter Selinger 2001-2011
</metadata>
<g transform="translate(0.000000,292.000000) scale(0.100000,-0.100000)"
fill="#000000" stroke="none">
<path d="M1994 2824 c6 -19 3 -21 -34 -21 -22 0 -43 4 -46 9 -3 4 -8 6 -12 4
-4 -2 -29 0 -57 4 -62 10 -254 -9 -309 -30 -14 -5 -26 -8 -26 -5 0 2 -35 -14
-77 -37 -73 -38 -104 -61 -103 -73 0 -3 -7 -16 -16 -30 -11 -17 -14 -35 -10
-57 7 -34 -11 -98 -31 -111 -7 -4 -13 -16 -13 -26 0 -10 -7 -24 -15 -31 -8 -7
-15 -21 -15 -32 0 -10 -3 -17 -7 -15 -5 3 -7 -14 -5 -36 7 -80 2 -110 -19
-130 -12 -11 -29 -38 -39 -60 -18 -40 -18 -42 1 -79 11 -21 25 -38 32 -38 17
0 37 -34 28 -49 -4 -7 -4 -36 1 -65 11 -74 16 -196 8 -196 -4 0 -8 -21 -8 -46
-1 -39 4 -50 32 -79 19 -19 37 -31 40 -28 7 7 90 -58 134 -106 l32 -35 -21
-22 c-11 -12 -33 -25 -47 -29 -34 -8 -115 -55 -108 -62 2 -3 17 2 33 11 15 8
53 27 83 41 30 14 66 32 79 40 l24 14 -68 70 c-37 39 -88 80 -112 92 -24 12
-50 28 -58 36 -18 17 -19 62 -3 114 9 30 8 44 -1 62 -7 13 -11 34 -10 48 1 13
1 63 1 112 -2 67 -5 87 -16 87 -25 0 -59 35 -59 62 0 25 51 95 111 153 31 31
28 38 -11 22 l-32 -14 0 58 c0 44 5 63 21 81 12 13 38 56 59 96 21 40 53 85
71 100 35 29 139 67 155 57 5 -4 9 1 9 9 0 19 5 20 29 7 20 -11 61 -4 61 11 0
6 -13 8 -30 5 -17 -4 -30 -2 -30 3 0 15 -51 12 -106 -7 -76 -26 -109 -47 -113
-74 -6 -44 -41 -48 -41 -5 0 53 121 133 240 160 153 33 220 37 306 16 43 -10
81 -15 84 -11 3 5 22 12 42 17 l37 9 -26 25 c-24 23 -25 23 -19 4z"/>
<path d="M2052 2810 c7 -11 16 -20 20 -20 5 0 8 -6 8 -14 0 -8 9 -13 24 -12
13 0 22 4 19 9 -2 4 6 7 19 8 22 0 22 1 3 8 -11 5 -25 6 -32 4 -7 -3 -22 5
-34 16 -29 27 -43 27 -27 1z"/>
<path d="M2179 2766 c-10 -21 -18 -24 -52 -23 -24 1 -42 -3 -44 -10 -3 -10 11
-13 50 -13 48 0 58 -4 76 -26 12 -15 21 -31 21 -35 0 -5 16 -32 36 -59 34 -47
36 -56 39 -133 2 -45 8 -104 14 -132 6 -27 14 -67 17 -87 7 -39 11 -43 31 -30
9 5 4 37 -17 124 -15 64 -31 121 -34 126 -3 6 -2 21 3 34 7 18 3 36 -14 72
-13 27 -28 53 -34 59 -6 6 -11 19 -11 29 0 10 -5 18 -11 18 -5 0 -8 3 -6 8 3
4 -8 20 -24 35 -16 16 -29 23 -29 18 0 -6 -5 -11 -10 -11 -6 0 -4 13 5 30 9
17 13 30 10 30 -3 0 -10 -11 -16 -24z"/>
<path d="M1827 2751 c2 -9 -5 -25 -16 -35 -21 -19 -29 -42 -11 -31 6 3 10 1
10 -6 0 -9 3 -9 14 0 12 10 13 8 9 -8 -3 -12 -1 -21 5 -21 16 0 24 34 14 61
-5 13 -7 29 -5 35 2 6 -3 14 -10 17 -10 4 -13 0 -10 -12z"/>
<path d="M1744 2753 c11 -11 45 -13 51 -3 4 6 -7 10 -26 10 -18 0 -29 -3 -25
-7z"/>
<path d="M1980 2752 c0 -5 11 -12 25 -15 16 -3 24 0 22 7 -4 14 -47 21 -47 8z"/>
<path d="M1723 2715 c-6 -7 -9 -16 -5 -20 4 -4 -2 -13 -12 -21 -11 -8 -16 -14
-11 -14 5 0 0 -6 -11 -14 -10 -8 -16 -18 -12 -21 4 -4 21 8 37 26 30 33 35 32
32 -3 -2 -12 3 -16 13 -12 19 7 20 14 1 37 -7 11 -11 25 -9 32 7 18 -9 25 -23
10z"/>
<path d="M2027 2708 c4 -7 8 -16 8 -20 0 -11 15 -22 15 -10 0 19 -12 42 -22
42 -5 0 -6 -6 -1 -12z"/>
<path d="M2087 2694 c5 -11 10 -34 12 -53 1 -22 11 -43 27 -58 29 -27 36 -29
28 -8 -4 8 -3 15 0 15 4 0 12 -13 17 -29 6 -18 20 -32 34 -35 14 -4 36 -19 51
-34 19 -20 23 -21 12 -5 -8 12 -26 32 -41 43 -22 17 -25 25 -17 40 6 10 10 25
9 32 0 7 -4 3 -9 -9 -5 -13 -13 -23 -17 -23 -13 0 -31 49 -26 69 3 10 0 22 -6
25 -6 4 -11 2 -11 -5 0 -8 -7 -7 -22 4 -13 8 -23 20 -23 27 0 8 -6 15 -13 18
-11 3 -12 0 -5 -14z m63 -80 c0 -13 -3 -24 -6 -24 -12 0 -32 34 -27 46 8 21
33 4 33 -22z"/>
<path d="M1947 2693 c-4 -3 -7 -13 -7 -22 0 -14 2 -14 10 -1 9 13 11 13 20 0
11 -17 13 -10 4 14 -7 17 -16 20 -27 9z"/>
<path d="M1900 2647 c0 -18 7 -42 15 -53 8 -10 15 -30 15 -44 0 -19 3 -21 9
-10 15 26 24 93 12 85 -6 -3 -14 2 -18 11 -6 16 -7 16 -15 -2 -6 -13 -7 -10
-3 14 2 17 0 32 -5 32 -6 0 -10 -15 -10 -33z"/>
<path d="M2020 2652 c0 -13 4 -20 10 -17 6 3 10 2 10 -4 0 -5 -5 -11 -12 -13
-9 -3 -8 -10 3 -26 14 -19 18 -20 35 -7 18 14 18 14 0 15 -12 0 -16 5 -13 15
3 7 -3 24 -13 37 l-19 23 -1 -23z"/>
<path d="M1641 2651 c-9 -6 -10 -11 -2 -15 13 -8 31 1 31 15 0 11 -11 11 -29
0z"/>
<path d="M1830 2554 c0 -14 4 -23 10 -19 12 7 19 -8 23 -50 4 -33 27 -75 40
-75 5 0 7 -7 3 -15 -3 -8 0 -14 6 -12 6 1 17 -9 25 -23 7 -14 18 -24 24 -22 7
2 9 -4 5 -14 -5 -14 -2 -16 22 -11 21 4 36 0 57 -19 31 -27 34 -27 54 -15 9 6
10 11 2 15 -6 4 -11 4 -11 1 0 -4 -12 2 -27 13 -16 11 -45 27 -65 37 -44 20
-125 140 -135 199 -7 42 -33 50 -33 10z"/>
<path d="M1980 2538 c0 -17 2 -18 15 -8 8 7 15 14 15 15 0 2 -7 5 -15 9 -10 4
-15 -1 -15 -16z"/>
<path d="M2047 2538 c-7 -26 1 -38 12 -20 9 14 41 6 41 -11 0 -6 3 -7 6 -4 10
9 -24 57 -40 57 -8 0 -16 -10 -19 -22z"/>
<path d="M2083 2475 c14 -74 21 -91 44 -114 13 -12 26 -21 29 -18 3 2 -14 40
-37 83 -26 50 -40 68 -36 49z"/>
<path d="M2130 2484 c0 -12 7 -24 15 -28 19 -7 19 5 0 30 -14 19 -14 19 -15
-2z"/>
<path d="M2207 2468 c3 -18 14 -41 24 -50 10 -10 21 -34 25 -53 8 -47 22 -45
17 2 -4 38 -50 133 -64 133 -5 0 -6 -15 -2 -32z"/>
<path d="M1790 2451 c0 -8 -7 -11 -15 -7 -13 5 -14 2 -4 -16 l12 -22 9 23 c5
13 6 26 3 29 -3 3 -5 0 -5 -7z"/>
<path d="M1970 2430 c1 -8 7 -26 15 -40 l15 -25 -6 30 c-7 33 -24 58 -24 35z"/>
<path d="M2164 2425 c-4 -9 0 -24 10 -33 15 -15 16 -14 16 10 0 32 -17 46 -26
23z"/>
<path d="M1463 2409 c-18 -5 -33 -16 -33 -24 0 -8 -7 -15 -15 -15 -8 0 -15 -4
-15 -10 0 -5 9 -10 19 -10 11 0 23 5 26 10 3 6 32 10 63 10 l57 1 -28 24 c-31
27 -29 27 -74 14z"/>
<path d="M1850 2387 c0 -14 5 -29 10 -32 7 -4 8 3 4 22 -9 38 -14 42 -14 10z"/>
<path d="M2200 2395 c0 -12 27 -62 42 -79 10 -11 18 -25 17 -30 -2 -17 13 -56
21 -56 14 0 2 50 -24 96 -14 26 -26 53 -26 60 0 8 -7 14 -15 14 -8 0 -15 -2
-15 -5z"/>
<path d="M1270 2351 c0 -11 31 -24 39 -16 3 3 -1 10 -9 15 -19 12 -30 12 -30
1z"/>
<path d="M1590 2341 c13 -11 28 -17 32 -15 12 8 -18 34 -39 34 -15 0 -14 -3 7
-19z"/>
<path d="M1431 2323 c-8 -9 -20 -32 -27 -52 -7 -20 -13 -28 -14 -19 0 25 -14
29 -36 12 -18 -15 -18 -15 3 -11 13 3 24 -1 27 -9 3 -8 12 -14 20 -14 7 0 16
-7 20 -15 3 -8 13 -15 23 -15 10 0 14 3 8 8 -18 12 -32 56 -25 76 8 23 60 32
60 11 0 -21 19 -28 36 -14 13 10 17 10 24 -1 6 -9 4 -17 -3 -22 -7 -4 -7 -8
-2 -8 6 0 21 9 34 19 24 18 24 20 8 45 -18 26 -37 35 -37 16 0 -5 5 -10 10
-10 6 0 10 -4 10 -10 0 -5 -13 -8 -29 -7 -16 1 -27 5 -24 10 2 4 -5 7 -16 7
-12 0 -21 6 -21 13 -1 7 -6 5 -14 -6 -12 -15 -15 -16 -18 -4 -3 13 -5 13 -17
0z"/>
<path d="M2133 2323 c9 -9 20 -13 24 -9 4 4 1 11 -7 16 -25 16 -35 11 -17 -7z"/>
<path d="M1307 2323 c-13 -12 -7 -23 13 -23 11 0 20 7 20 15 0 15 -21 21 -33
8z"/>
<path d="M1830 2286 c0 -8 5 -18 10 -21 6 -3 10 1 10 9 0 8 -4 18 -10 21 -5 3
-10 -1 -10 -9z"/>
<path d="M1926 2251 c10 -10 21 -17 23 -15 6 6 -20 34 -32 34 -6 0 -2 -8 9
-19z"/>
<path d="M2223 2235 c-16 -18 -17 -38 -1 -33 6 2 13 14 15 26 3 26 2 26 -14 7z"/>
<path d="M1970 2231 c0 -6 -7 -11 -16 -11 -11 0 -14 -5 -10 -16 3 -9 6 -18 6
-20 0 -2 4 -4 10 -4 5 0 7 8 4 18 -5 16 -5 16 9 0 20 -25 25 -22 19 7 -4 25
-22 45 -22 26z"/>
<path d="M1891 2186 c-10 -12 -9 -17 8 -28 12 -7 21 -18 21 -25 0 -7 10 -13
23 -13 13 0 17 3 11 8 -7 4 -13 16 -16 27 -2 15 -10 19 -28 17 -19 -2 -22 -1
-10 7 8 5 12 13 9 16 -4 3 -12 -1 -18 -9z"/>
<path d="M2344 2184 c1 -6 8 -19 15 -28 12 -14 12 -16 -3 -10 -12 4 -16 0 -16
-15 0 -12 4 -21 10 -21 15 0 28 31 22 53 -3 14 -1 18 6 13 7 -4 12 -3 12 2 0
5 -11 12 -24 14 -15 3 -23 0 -22 -8z"/>
<path d="M2050 2175 c6 -8 9 -19 5 -25 -3 -5 -1 -10 4 -10 6 0 11 7 11 15 0 8
7 15 16 15 13 0 15 -9 12 -45 -2 -25 -2 -45 -1 -45 1 0 10 14 18 30 14 28 14
32 -2 55 -12 16 -28 24 -47 25 -24 0 -26 -2 -16 -15z"/>
<path d="M1308 2156 c-16 -5 -28 -14 -28 -19 0 -5 12 -6 28 -2 15 4 32 8 39 9
7 1 16 6 20 12 4 5 4 6 -1 2 -5 -4 -14 -4 -20 0 -6 5 -23 4 -38 -2z"/>
<path d="M2013 2142 c-1 -15 5 -44 13 -65 11 -30 12 -38 2 -35 -7 3 -18 20
-24 38 -11 33 -11 34 -19 10 -4 -14 -14 -33 -23 -43 -22 -25 -5 -37 45 -30 36
5 43 9 48 35 5 19 1 37 -10 54 -8 13 -14 32 -13 41 2 9 -1 18 -7 19 -5 2 -11
-8 -12 -24z"/>
<path d="M1388 2125 c6 -32 -5 -75 -20 -75 -6 0 -17 8 -24 18 -8 12 -26 17
-58 17 -48 0 -51 -1 -37 -23 5 -8 17 -11 34 -7 16 4 34 1 50 -9 19 -13 30 -14
51 -7 22 9 26 17 26 50 0 21 -6 44 -14 50 -11 9 -12 6 -8 -14z"/>
<path d="M2160 2131 c0 -11 9 -30 21 -42 12 -12 24 -41 28 -67 l7 -47 8 42 c7
39 5 46 -28 89 -29 38 -36 43 -36 25z"/>
<path d="M2294 2130 c3 -14 6 -31 6 -37 0 -7 5 -13 10 -13 15 0 12 34 -6 56
-15 18 -15 18 -10 -6z"/>
<path d="M2342 2078 c-2 -13 -4 -27 -4 -33 -1 -5 2 -21 7 -34 6 -21 5 -23 -14
-18 -17 4 -21 2 -16 -12 3 -10 -6 -39 -20 -65 -24 -46 -35 -126 -16 -126 4 0
6 -11 3 -25 -2 -15 0 -25 7 -25 6 0 11 -6 11 -14 0 -17 38 -46 60 -46 8 0 0 9
-19 21 -24 15 -31 23 -22 29 9 5 10 10 3 14 -6 4 -8 14 -5 23 4 9 2 14 -3 11
-5 -3 -10 16 -11 43 -1 27 2 49 7 49 5 0 7 6 4 14 -3 8 8 42 25 76 34 68 37
89 19 109 -11 10 -9 11 7 5 18 -7 18 -6 6 9 -18 23 -26 21 -29 -5z"/>
<path d="M2120 2061 c-7 -14 -7 -22 1 -27 10 -6 28 11 29 28 0 17 -20 17 -30
-1z"/>
<path d="M1293 2013 c-1 -21 0 -23 6 -10 4 10 10 18 14 18 13 -2 8 14 -5 17
-9 2 -14 -8 -15 -25z"/>
<path d="M1911 2008 c-7 -11 -10 -23 -7 -26 3 -3 6 1 6 8 0 10 5 9 19 -4 18
-16 18 -16 13 9 -6 34 -15 38 -31 13z"/>
<path d="M2088 2004 c-7 -14 -24 -32 -38 -39 -80 -43 -130 -57 -130 -35 0 6
-4 10 -10 10 -5 0 -10 -12 -10 -26 0 -25 2 -26 33 -18 17 4 51 8 74 9 40 1 76
15 39 15 -23 0 -12 15 24 34 35 17 36 15 14 -20 -9 -13 -14 -27 -11 -30 7 -7
42 57 39 70 -2 4 2 14 9 22 11 13 5 34 -11 34 -5 0 -15 -12 -22 -26z"/>
<path d="M2230 1973 c0 -8 5 -13 12 -11 18 6 21 25 3 25 -8 0 -15 -7 -15 -14z"/>
<path d="M1459 1955 c5 -17 14 -41 20 -55 10 -23 11 -21 7 14 -3 22 -12 46
-21 55 -13 13 -14 12 -6 -14z"/>
<path d="M2216 1922 c-4 -18 -5 -36 -2 -39 11 -12 17 5 14 39 l-3 33 -9 -33z"/>
<path d="M2124 1903 c-3 -16 -7 -34 -10 -40 -2 -7 0 -13 5 -13 5 0 12 -12 15
-26 11 -42 16 -23 6 21 -10 42 -3 65 12 44 7 -11 8 -9 4 4 -3 10 -6 23 -6 28
0 21 -20 7 -26 -18z"/>
<path d="M1287 1913 c-10 -3 -17 -12 -15 -20 2 -13 20 -16 96 -17 89 -1 123 6
85 18 -28 8 -96 10 -123 3 -14 -4 -19 -4 -12 -1 6 3 12 10 12 15 0 9 -12 10
-43 2z"/>
<path d="M2039 1873 c0 -10 -2 -37 -5 -60 -2 -23 0 -44 4 -47 5 -3 9 11 10 31
2 44 7 50 26 30 14 -14 20 -37 30 -112 3 -22 -19 -49 -154 -191 -116 -122
-191 -238 -325 -501 -37 -74 -60 -176 -30 -137 8 11 15 22 15 27 0 4 8 15 18
25 9 11 36 45 59 78 23 32 56 74 73 93 17 18 28 36 25 39 -3 3 -11 0 -17 -6
-21 -21 -31 -13 -24 18 6 32 14 45 56 88 14 14 19 22 12 17 -11 -6 -12 -3 -3
13 6 12 16 24 21 27 6 4 17 22 25 42 8 20 26 45 39 57 12 12 26 29 29 39 4 10
11 15 17 12 5 -3 10 1 10 9 0 8 11 23 25 34 14 11 25 23 25 26 0 4 11 18 25
32 14 14 25 29 25 34 0 6 5 9 12 8 7 -2 23 18 36 44 24 45 25 46 66 41 22 -3
46 -6 53 -6 7 0 15 -7 18 -15 5 -13 8 -12 20 4 19 25 19 35 0 28 -9 -4 -15 0
-15 8 0 8 -16 21 -36 30 -35 16 -35 16 -18 -3 22 -24 10 -38 -14 -16 -10 10
-23 17 -29 17 -10 0 -33 42 -33 61 0 22 -31 75 -50 87 -17 10 -20 10 -21 -5z
m-318 -786 l-23 -22 11 22 c6 12 11 32 12 45 l0 23 11 -23 c10 -19 8 -26 -11
-45z"/>
<path d="M2170 1838 c0 -8 7 -21 15 -28 19 -16 19 -1 0 24 -12 16 -15 17 -15
4z"/>
<path d="M1312 1831 c-11 -7 -11 -9 2 -14 16 -6 66 7 66 18 0 8 -54 5 -68 -4z"/>
<path d="M1351 1709 c-22 -36 -26 -49 -13 -49 9 0 43 72 37 78 -2 2 -13 -11
-24 -29z"/>
<path d="M2034 1677 c-28 -18 -59 -40 -68 -49 -25 -26 -133 -108 -142 -108 -4
0 -21 -12 -37 -27 -21 -20 -28 -23 -24 -10 14 37 -24 15 -55 -33 -18 -27 -37
-50 -41 -50 -5 0 -5 5 -2 10 3 6 2 10 -4 10 -5 0 -12 -6 -15 -12 -2 -7 -4 -2
-3 11 1 13 -3 26 -9 28 -8 2 -9 -10 -4 -42 8 -50 1 -56 -24 -22 -13 17 -16 18
-12 4 16 -51 17 -67 7 -67 -15 0 -32 36 -56 120 -17 62 -26 78 -53 97 -20 13
-40 19 -50 15 -14 -6 -13 -7 6 -10 13 -2 20 -8 16 -14 -5 -7 0 -9 14 -6 13 4
20 2 16 -4 -3 -5 1 -15 11 -21 9 -7 19 -36 24 -67 5 -30 18 -77 30 -105 22
-48 23 -49 38 -30 8 11 20 27 26 35 19 24 128 113 191 155 82 56 293 227 276
224 -3 0 -28 -15 -56 -32z"/>
<path d="M2300 1640 c0 -39 1 -40 33 -40 45 0 63 -17 77 -69 9 -33 31 -64 94
-130 161 -170 204 -238 246 -391 20 -73 21 -66 4 49 -5 37 -61 162 -77 172 -5
4 -6 12 -2 19 5 8 4 11 -2 7 -11 -7 -37 16 -28 24 2 3 -14 24 -35 48 -22 24
-40 50 -40 57 0 8 -5 14 -11 14 -5 0 -7 -6 -3 -12 4 -7 -9 4 -29 24 -21 20
-37 41 -37 45 0 5 -9 14 -20 21 -11 7 -20 19 -20 27 0 8 -4 15 -8 15 -4 0 -9
11 -10 25 -2 29 -35 65 -59 65 -21 0 -46 14 -43 24 1 4 0 15 -3 26 -9 35 -27
22 -27 -20z"/>
<path d="M2149 1582 c-13 -9 -35 -30 -49 -46 -14 -17 -34 -40 -45 -52 -12 -13
-39 -44 -60 -70 -22 -26 -52 -60 -67 -77 -15 -17 -24 -35 -21 -40 3 -6 12 -2
20 9 35 48 153 185 201 232 55 55 64 74 21 44z"/>
<path d="M2315 1580 c3 -5 13 -10 21 -10 8 0 14 5 14 10 0 6 -9 10 -21 10 -11
0 -17 -4 -14 -10z"/>
<path d="M1484 1368 c-10 -19 -18 -57 -18 -90 -1 -32 -5 -58 -9 -58 -5 0 -6
-4 -3 -9 4 -5 0 -12 -6 -14 -10 -4 -9 -8 2 -16 12 -9 9 -11 -15 -12 -16 0 -24
-3 -17 -6 20 -8 14 -43 -9 -51 -15 -6 -34 -43 -70 -132 -66 -166 -92 -241 -73
-215 8 10 22 43 31 72 12 37 19 49 26 41 6 -9 7 -8 3 5 -3 9 -3 24 1 33 5 13
8 13 15 2 7 -9 8 -5 5 12 -3 14 3 45 13 70 11 27 19 37 20 25 0 -17 2 -17 10
-5 5 8 10 11 10 7 0 -13 -22 -51 -34 -59 -8 -6 -7 -11 3 -17 10 -6 10 -10 1
-13 -9 -3 -7 -8 4 -17 14 -12 16 -12 10 3 -3 9 -1 16 6 16 6 0 9 4 6 9 -4 5
-3 11 2 13 4 1 21 44 36 93 16 50 34 104 41 120 7 17 16 50 20 75 3 25 10 67
14 93 9 58 -2 69 -25 25z m-83 -311 c-13 -13 -15 1 -4 30 7 17 8 17 11 -1 2
-10 -1 -23 -7 -29z"/>
<path d="M1520 1277 c0 -9 -3 -22 -6 -31 -4 -11 0 -16 14 -16 12 0 23 -4 26
-9 3 -5 15 -7 26 -4 26 7 26 -12 0 -39 -11 -12 -20 -28 -20 -35 0 -7 -4 -13
-9 -13 -5 0 -15 -16 -21 -35 -6 -19 -16 -33 -21 -30 -5 4 -9 -3 -9 -14 0 -16
-6 -21 -25 -21 -14 0 -25 -4 -25 -9 0 -5 -3 -18 -7 -28 -5 -15 -2 -15 19 5 13
12 30 22 36 22 7 0 12 5 12 12 0 6 6 3 14 -8 8 -10 11 -21 6 -24 -4 -3 -11
-20 -15 -37 -5 -28 -4 -32 9 -27 19 7 20 -4 3 -45 -7 -17 -16 -28 -20 -24 -4
3 -7 -5 -7 -20 0 -14 -5 -29 -10 -32 -6 -4 -8 -11 -4 -16 3 -5 0 -16 -6 -24
-7 -8 -8 -15 -3 -15 18 0 82 154 87 210 3 36 14 72 33 103 15 27 33 57 38 67
6 10 17 25 24 34 12 14 9 21 -25 50 -34 30 -41 32 -55 20 -22 -20 -27 -18 -31
13 -3 28 -28 45 -28 20z m80 -132 c0 -8 -3 -15 -8 -15 -4 0 -16 -20 -27 -44
-11 -24 -23 -42 -26 -40 -10 6 1 44 12 44 5 0 9 6 9 14 0 7 7 19 15 26 13 11
13 15 3 21 -10 7 -9 9 5 9 9 0 17 -7 17 -15z"/>
<path d="M1871 1263 c-11 -15 -25 -33 -31 -40 -15 -19 -12 -27 5 -13 23 19 58
70 52 76 -2 3 -14 -8 -26 -23z"/>
<path d="M1151 1183 c-37 -90 -59 -281 -39 -337 14 -38 14 -37 15 60 1 58 9
140 22 199 21 103 22 125 2 78z"/>
<path d="M1800 1175 c-10 -12 -10 -15 3 -15 8 0 17 7 21 15 3 8 2 15 -3 15 -5
0 -14 -7 -21 -15z"/>
<path d="M1306 1148 c-9 -14 -14 -41 -12 -66 2 -23 -3 -54 -10 -68 -7 -13 -11
-31 -8 -39 4 -8 -1 -17 -9 -21 -9 -3 -14 -13 -12 -23 2 -9 -5 -35 -16 -56 -10
-22 -18 -48 -19 -57 0 -10 -5 -18 -11 -18 -6 0 -8 -7 -5 -16 4 -9 -1 -28 -10
-42 -13 -20 -17 -56 -20 -166 -3 -133 -2 -136 6 -56 14 128 37 218 96 388 30
85 52 163 49 173 -3 9 -1 20 4 24 7 4 8 -1 5 -12 -5 -15 -4 -16 5 -3 6 8 11
30 11 48 0 38 -22 43 -44 10z"/>
<path d="M1838 1083 c-41 -54 -88 -139 -88 -159 0 -8 -5 -14 -11 -14 -8 0 -8
-4 1 -14 8 -11 9 -20 1 -33 -9 -16 -10 -15 -11 7 0 17 -3 21 -9 12 -4 -7 -6
-25 -4 -40 3 -23 2 -24 -6 -7 -7 15 -10 16 -11 5 -2 -8 -2 -21 -1 -27 1 -8 -5
-10 -16 -6 -16 5 -16 4 1 -9 13 -10 15 -17 8 -22 -7 -4 -12 -16 -12 -27 0 -10
-7 -19 -15 -19 -9 0 -18 -12 -21 -30 -4 -16 -10 -30 -15 -30 -5 0 -9 -5 -9
-11 0 -6 -8 -18 -18 -27 -10 -10 -12 -13 -5 -8 17 11 17 -2 0 -34 -21 -41 -28
-62 -17 -55 6 3 10 13 10 21 0 8 4 14 8 14 5 0 19 23 31 50 13 28 28 56 35 63
35 35 126 198 126 226 0 17 47 137 74 190 23 43 16 39 -26 -16z"/>
<path d="M2310 1043 c-323 -22 -390 -36 -467 -99 -57 -47 -55 -61 3 -25 86 55
161 78 297 91 77 8 170 10 230 6 75 -5 98 -3 90 5 -11 11 -108 25 -153 22z"/>
<path d="M1435 929 c-19 -12 -24 -19 -14 -19 9 0 27 9 40 20 30 25 13 25 -26
-1z"/>
<path d="M2304 940 c-46 -7 -105 -29 -79 -30 18 0 147 28 153 34 6 7 -4 6 -74
-4z"/>
<path d="M1918 924 c-25 -13 -38 -34 -22 -34 12 0 64 34 64 42 0 11 -11 9 -42
-8z"/>
<path d="M1067 855 c7 -36 25 -71 53 -105 l21 -25 -7 29 c-4 16 -17 44 -28 62
-49 75 -46 72 -39 39z"/>
<path d="M1850 834 c-30 -8 -59 -20 -65 -26 -7 -8 -3 -9 15 -4 14 4 75 12 135
19 80 8 102 13 80 18 -50 11 -107 9 -165 -7z"/>
<path d="M2410 801 l-35 -7 32 -7 c18 -3 39 -4 47 -1 8 3 23 1 33 -5 11 -5 25
-6 33 -1 9 5 20 5 27 -2 10 -8 12 -7 7 6 -4 10 -18 16 -38 16 -17 0 -40 2 -51
4 -11 2 -36 1 -55 -3z"/>
<path d="M1644 772 c-9 -5 -8 -11 2 -20 8 -7 14 -11 14 -8 0 2 3 11 6 20 6 17
-3 21 -22 8z"/>
<path d="M1784 756 c-18 -8 -35 -19 -38 -25 -9 -14 -10 -15 59 14 41 17 52 24
35 24 -14 0 -39 -6 -56 -13z"/>
<path d="M2200 761 c0 -5 16 -8 35 -7 19 2 35 -1 35 -5 0 -5 19 -9 41 -9 34 0
39 3 30 14 -13 15 -141 22 -141 7z"/>
<path d="M2674 756 c-10 -8 -16 -17 -13 -20 3 -3 14 3 24 14 21 23 17 26 -11
6z"/>
<path d="M1033 725 c6 -48 17 -57 17 -12 0 20 -5 39 -10 42 -7 4 -9 -6 -7 -30z"/>
<path d="M1975 753 c-64 -14 -161 -60 -151 -71 6 -5 45 8 106 36 19 9 54 16
77 16 23 1 45 4 49 9 4 4 -2 7 -14 7 -11 0 -26 2 -34 4 -7 2 -22 2 -33 -1z"/>
<path d="M2470 722 c0 -10 68 -13 74 -3 3 4 -13 8 -35 9 -21 2 -39 -1 -39 -6z"/>
<path d="M1090 714 c0 -3 11 -19 25 -36 20 -23 25 -26 25 -11 0 10 -12 26 -25
36 -14 10 -25 15 -25 11z"/>
<path d="M1497 694 c-3 -3 -3 -12 0 -20 2 -7 -2 -23 -11 -36 -9 -12 -16 -29
-16 -38 0 -22 36 40 42 73 5 25 -1 34 -15 21z"/>
<path d="M921 677 c-1 -19 -55 -47 -91 -47 -11 0 -20 -3 -20 -7 0 -5 -23 -33
-50 -63 -28 -30 -50 -59 -50 -65 0 -6 -14 -30 -31 -53 -17 -23 -28 -42 -24
-42 3 0 -1 -7 -10 -16 -11 -12 -13 -20 -5 -29 18 -22 1 -45 -28 -39 -16 3 -35
-1 -47 -10 -26 -19 -14 -31 16 -16 19 10 30 9 70 -11 30 -15 49 -31 49 -41 0
-21 15 -24 27 -5 9 14 48 40 75 50 12 4 15 2 11 -9 -3 -7 0 -14 6 -14 6 0 11
5 11 12 0 6 3 9 6 6 3 -4 20 0 37 7 l32 13 1 -38 c0 -21 -3 -37 -7 -35 -3 3
-13 -39 -22 -93 -8 -53 -18 -105 -22 -115 -6 -15 0 -17 56 -16 45 1 55 3 34 8
-23 5 -31 13 -37 41 -14 70 19 206 64 261 7 9 29 26 48 39 41 26 26 23 -90
-19 -47 -17 -98 -30 -115 -31 -16 0 -45 -9 -63 -20 -27 -17 -37 -18 -55 -9
-30 16 -37 28 -37 67 0 26 5 35 20 39 13 3 20 14 20 29 0 13 9 29 20 36 12 8
20 24 20 38 0 31 17 50 45 50 28 0 112 -74 136 -121 10 -21 26 -39 34 -39 23
0 -43 97 -97 143 -65 54 -62 87 7 87 24 0 70 62 61 84 -2 6 -5 3 -5 -7z"/>
<path d="M964 656 c3 -21 12 -49 21 -63 19 -28 32 -25 16 4 -5 10 -17 36 -26
58 l-16 40 5 -39z"/>
<path d="M2418 648 c14 -7 26 -8 32 -2 6 6 -2 10 -23 11 -30 2 -31 1 -9 -9z"/>
<path d="M2119 633 c-12 -15 -12 -16 4 -10 10 4 23 7 28 7 5 0 9 5 9 10 0 16
-26 12 -41 -7z"/>
<path d="M910 606 c0 -3 29 -34 65 -70 36 -35 65 -71 65 -79 0 -8 7 -18 16
-21 11 -4 15 -14 11 -32 -4 -25 -3 -26 32 -20 20 3 80 10 133 15 54 6 116 15
139 21 29 8 50 8 71 1 62 -22 69 -17 62 44 -5 37 -3 55 4 55 6 0 9 -8 6 -17
-3 -10 2 -7 10 7 18 29 20 56 6 65 -5 3 -8 0 -5 -7 3 -7 -11 -24 -30 -37 -20
-13 -32 -27 -27 -30 17 -12 20 -38 5 -38 -9 0 -18 9 -21 19 -6 24 -22 23 -22
-2 0 -10 -9 -24 -20 -30 -13 -7 -20 -7 -20 -1 0 7 -9 7 -27 0 -16 -6 -58 -11
-95 -10 -52 0 -67 -3 -72 -16 -6 -14 -8 -14 -21 3 -8 10 -15 30 -15 44 0 14
-4 31 -9 38 -13 21 -22 -27 -10 -50 14 -26 6 -32 -20 -18 -16 8 -21 8 -21 -1
0 -8 -4 -8 -15 1 -8 7 -15 16 -15 20 0 7 -12 22 -83 102 -28 32 -77 60 -77 44z"/>
<path d="M1973 549 c-116 -9 -244 -34 -308 -61 -101 -41 -235 -174 -235 -233
0 -15 5 -12 24 16 33 48 162 158 206 176 19 8 44 18 55 23 30 15 141 37 220
45 39 4 79 9 90 12 11 3 46 5 77 6 31 1 60 6 64 10 4 4 13 2 21 -4 10 -9 13
-8 13 1 0 8 8 10 23 6 20 -6 92 -10 127 -7 13 1 13 2 0 11 -16 11 -226 10
-377 -1z"/>
<path d="M2786 474 c-10 -14 -15 -28 -13 -31 3 -2 13 7 23 21 9 15 14 29 12
32 -3 2 -13 -7 -22 -22z"/>
<path d="M750 444 c0 -10 85 -113 98 -118 16 -7 10 2 -43 72 -35 46 -55 63
-55 46z"/>
<path d="M2778 417 c-52 -14 -48 -27 4 -16 50 12 84 29 53 27 -11 0 -37 -5
-57 -11z"/>
<path d="M2689 395 c-3 -2 -22 -6 -42 -8 -40 -5 -64 -17 -31 -16 42 1 98 15
88 21 -6 4 -13 6 -15 3z"/>
<path d="M711 350 c-2 -29 21 -42 41 -23 10 9 18 21 18 26 0 6 -8 3 -18 -6
-23 -21 -29 -21 -35 1 -4 13 -5 13 -6 2z"/>
<path d="M2770 340 c0 -5 7 -10 15 -10 8 0 15 5 15 10 0 6 -7 10 -15 10 -8 0
-15 -4 -15 -10z"/>
<path d="M1006 298 c-67 -116 -52 -229 36 -274 54 -28 62 -15 17 25 l-44 39 1
93 c0 68 5 103 18 127 25 48 1 39 -28 -10z"/>
<path d="M2615 315 c28 -14 56 -25 64 -25 22 0 131 -52 131 -63 0 -5 7 -4 15
3 39 32 12 50 -127 84 -131 32 -147 32 -83 1z"/>
<path d="M1338 283 c-10 -2 -18 -9 -18 -14 0 -15 53 -6 58 9 4 12 -8 14 -40 5z"/>
<path d="M473 229 c-37 -23 -95 -98 -87 -111 3 -4 1 -8 -5 -8 -6 0 -17 -23
-26 -52 -18 -63 -18 -58 0 -58 10 0 15 11 15 35 0 23 7 41 21 53 11 9 27 30
35 45 8 16 31 46 51 68 42 46 40 56 -4 28z"/>
<path d="M2692 243 c-17 -6 15 -32 39 -33 9 0 34 -16 55 -34 30 -27 40 -31 42
-19 5 22 -41 65 -72 66 -14 1 -26 5 -26 8 0 10 -23 17 -38 12z"/>
<path d="M555 222 c-22 -15 -82 -98 -95 -130 -21 -55 -4 -47 23 10 13 29 41
70 62 91 33 33 38 50 10 29z"/>
<path d="M1420 215 c0 -9 9 -15 23 -15 12 0 38 -13 57 -30 19 -16 36 -27 39
-25 8 9 -44 57 -76 71 -40 17 -43 17 -43 -1z"/>
<path d="M1271 186 c12 -13 21 -14 40 -7 13 5 17 10 9 11 -8 0 -26 3 -40 6
-23 6 -24 5 -9 -10z"/>
<path d="M1390 175 c0 -8 6 -15 14 -15 8 0 16 7 20 15 4 10 -1 15 -14 15 -11
0 -20 -7 -20 -15z"/>
<path d="M1347 125 c-20 -41 -20 -45 -7 -45 10 0 40 52 40 70 0 21 -17 9 -33
-25z"/>
<path d="M1277 108 c-29 -21 -57 -66 -57 -93 0 -23 17 -18 24 7 3 13 21 40 40
60 39 42 35 57 -7 26z"/>
<path d="M1380 88 c0 -28 22 -88 32 -88 6 0 7 7 3 18 -4 9 -11 32 -17 50 -9
32 -18 42 -18 20z"/>
<path d="M530 66 c-5 -15 -15 -36 -20 -47 -9 -15 -7 -19 6 -19 10 0 14 5 10
15 -3 8 -2 15 3 15 10 0 25 50 17 58 -3 2 -10 -7 -16 -22z"/>
<path d="M1148 27 c-16 -6 -28 -14 -28 -19 0 -14 51 -4 67 14 19 21 5 23 -39
5z"/>
</g>
</svg>
