<?xml version="1.0" standalone="no"?>
<!DOCTYPE svg PUBLIC "-//W3C//DTD SVG 20010904//EN"
 "http://www.w3.org/TR/2001/REC-SVG-20010904/DTD/svg10.dtd">
<svg version="1.0" xmlns="http://www.w3.org/2000/svg"
 width="382.000000pt" height="372.000000pt" viewBox="0 0 382.000000 372.000000"
 preserveAspectRatio="xMidYMid meet">
<metadata>
Created by potrace 1.16, written by Peter Selinger 2001-2019
</metadata>
<g transform="translate(0.000000,372.000000) scale(0.100000,-0.100000)"
fill="#000000" stroke="none">
<path d="M0 2915 c0 -530 3 -805 10 -805 5 0 9 6 7 12 -3 17 114 23 158 8 41
-14 59 -53 53 -118 -4 -40 -12 -56 -45 -89 -36 -36 -58 -81 -52 -109 6 -33 -4
-75 -24 -97 -27 -32 -43 -34 -57 -7 -6 11 -19 24 -30 30 -20 11 -20 4 -20
-865 l0 -875 110 0 110 0 0 41 c0 48 12 74 52 108 17 13 35 29 42 35 18 18 58
35 106 46 25 6 50 12 55 13 6 1 15 6 22 10 21 13 20 -18 -2 -53 -23 -36 -49
-111 -59 -167 l-5 -33 379 0 380 0 -14 23 c-40 60 -27 211 26 316 25 51 44 74
82 99 55 36 54 41 -3 12 -21 -10 -41 -16 -45 -13 -3 4 -6 2 -6 -3 0 -5 -13
-10 -30 -11 -16 -1 -44 -10 -61 -19 -18 -9 -57 -18 -87 -20 -30 -2 -72 -13
-94 -24 -34 -18 -45 -19 -74 -10 -27 9 -35 18 -40 46 -8 46 3 85 26 91 12 3
20 14 20 27 0 27 27 66 46 66 10 0 13 7 8 25 -9 35 20 65 61 65 38 0 119 -70
168 -144 18 -27 39 -52 47 -54 12 -4 11 0 -3 19 -9 13 -26 41 -37 61 -11 20
-47 60 -80 90 -52 45 -60 57 -58 83 3 27 7 30 42 33 22 2 49 1 61 -2 30 -8 98
-74 102 -99 4 -26 22 -47 39 -47 8 0 14 -9 14 -19 0 -11 7 -27 16 -35 8 -9 13
-20 10 -25 -8 -13 28 -41 55 -42 13 -1 48 4 78 10 29 6 74 11 99 11 25 0 88 7
139 17 80 14 101 14 150 3 32 -7 62 -16 66 -20 5 -4 -14 -42 -41 -83 -35 -54
-52 -91 -57 -125 -6 -44 -10 -50 -48 -70 -23 -12 -51 -23 -62 -25 -13 -2 -19
-9 -17 -20 2 -11 -4 -17 -15 -17 -10 0 -41 -20 -68 -44 -46 -40 -55 -43 -100
-42 -28 1 -64 -5 -82 -11 -39 -15 -77 -17 -68 -3 3 5 0 10 -7 10 -56 0 -77
213 -32 325 17 43 -25 -7 -51 -60 -53 -108 -43 -230 24 -285 20 -16 44 -36 54
-45 15 -13 162 -15 1247 -15 l1230 0 0 1860 0 1860 -1910 0 -1910 0 0 -805z
m2396 624 c60 -13 100 -17 107 -11 7 5 26 12 44 15 25 5 39 1 62 -19 17 -14
35 -23 41 -19 14 9 13 -8 -2 -23 -9 -9 -7 -12 12 -13 102 -4 126 -10 148 -35
13 -14 26 -39 29 -55 3 -16 9 -29 13 -29 5 0 21 -20 37 -44 26 -39 30 -54 32
-128 1 -45 8 -110 17 -143 8 -33 20 -77 25 -97 10 -38 23 -135 20 -153 0 -5
-2 -42 -4 -82 -1 -39 -5 -74 -9 -78 -3 -4 -4 -23 -1 -43 5 -30 4 -34 -10 -29
-13 5 -17 0 -17 -22 0 -16 -7 -42 -15 -57 -8 -16 -15 -36 -15 -44 0 -9 -5 -21
-11 -27 -7 -7 -9 -33 -5 -69 3 -33 6 -68 6 -79 1 -11 10 -35 20 -53 21 -35 26
-62 12 -62 -5 0 -6 -14 -4 -31 3 -20 1 -30 -6 -25 -15 9 -25 -43 -11 -60 9
-11 7 -14 -10 -14 -12 0 -25 8 -28 18 -4 9 -11 20 -16 23 -12 8 1 31 13 24 4
-3 13 2 20 10 10 12 9 15 -4 15 -20 0 -21 29 -1 36 8 4 12 10 9 15 -3 5 -9 7
-14 4 -5 -3 -15 3 -22 12 -7 10 -32 31 -55 46 -24 15 -43 32 -43 37 0 5 -6 7
-14 4 -10 -4 -22 8 -35 34 -11 23 -25 43 -31 47 -13 8 -13 122 0 130 6 3 10
-1 10 -10 0 -9 5 -13 11 -9 8 5 8 1 0 -14 -15 -29 -14 -88 3 -104 7 -8 17 -24
20 -36 4 -12 12 -22 17 -22 6 0 8 4 5 9 -11 18 -23 130 -13 124 6 -4 7 7 3 28
-4 19 -9 54 -12 79 -2 25 -5 50 -5 55 -1 6 1 24 5 40 3 17 4 25 0 18 -3 -7
-12 -9 -20 -6 -8 3 -14 0 -14 -6 0 -6 -16 -33 -35 -60 -30 -42 -47 -54 -103
-75 -99 -38 -112 -34 -112 36 0 23 4 29 15 24 12 -4 15 2 13 33 -3 41 -14 44
-28 6 -8 -22 -50 -42 -50 -24 0 5 -7 9 -14 9 -33 0 -96 -121 -82 -157 7 -16
-10 -43 -26 -43 -6 0 -5 6 2 15 6 8 9 19 5 25 -10 16 -45 -7 -45 -30 0 -14 -7
-20 -21 -20 -15 0 -20 -5 -17 -22 2 -17 -2 -23 -15 -22 -15 2 -16 -1 -5 -13
10 -13 8 -19 -15 -39 -15 -13 -27 -30 -27 -39 0 -9 -9 -19 -20 -22 -11 -3 -20
-9 -20 -13 0 -4 -9 -10 -20 -13 -11 -3 -20 -1 -20 4 0 5 -13 3 -30 -6 -16 -8
-33 -16 -37 -16 -5 -1 -14 -4 -21 -7 -8 -2 -20 2 -29 11 -13 13 -20 13 -49 1
-18 -8 -42 -14 -52 -14 -11 0 -25 -7 -32 -15 -7 -8 -21 -15 -32 -15 -17 0 -18
-3 -8 -15 7 -8 11 -16 9 -16 -36 -11 -83 1 -50 13 6 2 6 18 2 38 l-8 35 -11
-40 c-7 -22 -12 -46 -12 -52 0 -7 -5 -13 -11 -13 -6 0 -9 -7 -5 -15 8 -21 -17
-19 -46 5 -34 26 -39 58 -21 141 10 51 11 74 3 89 -6 11 -10 39 -10 63 1 23
-2 65 -6 94 -3 29 -3 77 0 107 6 43 10 54 22 49 9 -3 19 -14 22 -23 7 -17 11
-17 72 4 70 22 89 38 90 73 0 30 -10 54 -21 47 -5 -3 -7 -9 -4 -13 2 -5 -40
-8 -95 -8 -55 0 -103 -3 -106 -6 -4 -3 -6 -18 -6 -32 0 -30 -7 -31 -42 -4 -40
31 -33 83 18 133 11 12 45 49 74 83 l52 62 -32 3 c-30 3 -33 6 -36 41 -3 32 0
37 18 37 12 0 18 4 15 10 -4 6 -15 8 -26 5 -26 -8 -24 3 7 49 35 52 123 226
115 227 -3 1 -9 1 -12 1 -17 -3 -19 52 -4 75 63 96 237 169 460 192 120 12
118 13 221 -10z m149 -1190 c-8 -12 17 -68 56 -126 16 -23 29 -45 29 -49 0 -5
-15 -23 -32 -42 -24 -24 -26 -30 -10 -21 12 8 22 17 22 20 0 4 11 9 25 11 14
3 25 3 25 0 0 -8 -78 -96 -189 -215 -56 -60 -120 -136 -142 -168 -69 -102
-181 -298 -253 -441 -38 -78 -73 -135 -78 -132 -16 10 0 113 24 153 12 20 36
52 53 71 21 23 35 50 39 77 6 39 4 43 -36 76 -38 32 -44 34 -62 21 -29 -20
-33 -18 -40 21 -4 19 -12 35 -19 35 -14 0 -37 -46 -37 -74 0 -15 -3 -17 -12
-8 -8 8 -9 24 0 64 24 118 25 137 4 181 -11 23 -33 56 -49 73 -63 69 -66 76
-16 38 31 -23 58 -55 69 -79 10 -22 21 -42 24 -45 9 -9 30 -44 40 -69 15 -34
21 -21 10 20 -13 44 -13 109 0 109 6 0 10 7 10 15 0 8 -4 15 -10 15 -9 0 -40
62 -40 82 0 10 38 -8 57 -28 7 -7 13 -21 13 -32 0 -11 7 -25 15 -32 8 -7 17
-27 21 -46 3 -19 10 -34 14 -34 5 0 11 -8 13 -17 4 -14 5 -13 6 4 1 16 5 21
17 16 13 -5 15 -2 10 14 -4 12 -1 25 8 32 18 15 36 6 36 -16 0 -9 32 16 75 58
42 40 81 77 88 82 9 7 9 10 -1 14 -9 3 -7 12 8 33 15 21 17 29 8 32 -8 3 -4 9
10 17 12 6 22 16 22 22 0 6 7 17 16 26 11 11 12 19 5 26 -22 22 -12 37 22 31
27 -5 30 -3 17 8 -29 24 -2 83 32 72 17 -5 19 -2 13 15 -4 14 -1 23 9 27 9 3
16 11 16 18 0 14 32 56 43 56 5 0 5 -5 2 -11z m445 -377 c-6 -2 1 -10 15 -18
15 -8 32 -11 38 -7 6 4 8 0 4 -11 -4 -9 -3 -15 2 -11 6 3 23 -14 39 -37 17
-24 46 -59 66 -77 43 -42 51 -78 9 -40 -16 13 -22 17 -15 9 20 -23 14 -34 -9
-14 -21 19 -22 19 -15 -1 5 -16 1 -21 -15 -22 -32 -3 -76 23 -82 48 -5 19 -4
19 11 6 9 -8 28 -18 40 -22 20 -6 23 -4 20 12 -2 10 -18 23 -38 29 -19 6 -36
18 -38 25 -6 19 -39 49 -53 49 -8 0 -8 -4 1 -15 7 -8 11 -15 9 -16 -2 0 -16
-2 -32 -4 l-27 -4 20 30 c12 16 16 29 10 29 -6 0 -20 9 -32 20 -12 11 -17 20
-10 20 6 0 14 -4 17 -10 8 -13 35 -13 35 1 0 6 -9 13 -20 16 -33 9 -22 18 21
18 22 0 35 -1 29 -3z"/>
<path d="M1940 3430 c0 -5 -17 -10 -37 -11 -22 -1 -64 -15 -98 -32 -54 -29
-60 -36 -62 -64 -1 -18 1 -33 4 -33 3 0 23 15 45 34 36 31 74 44 168 59 8 1
21 10 29 20 9 14 16 16 24 8 12 -12 80 -15 90 -5 14 15 -5 21 -39 14 -27 -6
-41 -5 -51 6 -16 16 -73 19 -73 4z"/>
<path d="M1871 3069 c-47 -10 -80 -53 -75 -99 4 -45 -3 -70 -22 -70 -27 0 -16
-48 16 -65 41 -21 43 -20 37 20 -5 28 -2 38 16 50 20 14 22 14 25 0 4 -18 22
-20 22 -2 0 8 3 7 10 -3 7 -12 15 -13 37 -4 22 8 32 8 41 -2 9 -10 19 -10 41
-3 34 12 32 35 -5 70 -27 25 -130 44 -138 25 -3 -7 -5 -6 -5 1 -1 18 13 23 63
25 25 1 46 5 46 8 0 10 -43 46 -60 52 -8 2 -30 1 -49 -3z"/>
<path d="M2474 2820 c-7 -30 -18 -38 -29 -20 -10 16 -24 11 -41 -15 -12 -19
-13 -29 -5 -38 8 -10 6 -19 -5 -36 -18 -25 -12 -40 10 -22 11 9 15 9 19 -1 4
-11 6 -10 6 0 1 8 6 10 14 5 6 -4 28 -8 47 -8 31 0 35 -3 32 -25 -2 -14 -12
-32 -23 -42 -22 -19 -25 -44 -6 -51 7 -3 35 -3 61 0 42 5 50 10 61 36 9 21 10
40 3 65 -8 29 -6 37 11 53 11 11 18 26 15 34 -4 9 0 15 7 15 11 0 11 3 -1 10
-23 15 -43 12 -36 -5 8 -22 -26 -19 -58 6 -14 11 -26 29 -26 39 0 10 -4 22
-10 25 -5 3 -10 2 -10 -3 0 -6 -7 -12 -14 -15 -10 -4 -13 -1 -9 9 3 7 2 14 -1
14 -4 0 -9 -13 -12 -30z"/>
</g>
</svg>
