<?xml version="1.0" standalone="no"?>
<!DOCTYPE svg PUBLIC "-//W3C//DTD SVG 20010904//EN"
 "http://www.w3.org/TR/2001/REC-SVG-20010904/DTD/svg10.dtd">
<svg version="1.0" xmlns="http://www.w3.org/2000/svg"
 width="382.000000pt" height="372.000000pt" viewBox="0 0 382.000000 372.000000"
 preserveAspectRatio="xMidYMid meet">
<metadata>
Created by potrace 1.16, written by Peter Selinger 2001-2019
</metadata>
<g transform="translate(0.000000,372.000000) scale(0.100000,-0.100000)"
fill="#000000" stroke="none">
<path d="M0 2924 c0 -629 3 -794 12 -788 18 11 95 16 146 9 48 -7 69 -30 83
-95 11 -50 -16 -120 -54 -137 -28 -13 -40 -54 -38 -130 1 -43 -2 -54 -19 -63
-12 -6 -25 -22 -30 -36 l-10 -25 -29 21 c-17 11 -33 29 -36 40 -4 11 -11 20
-16 20 -5 0 -9 -339 -9 -870 l0 -870 95 0 95 0 -6 54 c-5 43 -3 58 9 70 9 9
20 16 25 16 5 0 21 9 36 21 57 45 177 99 218 97 21 -1 41 -5 43 -9 3 -4 -6
-27 -20 -51 -26 -45 -49 -111 -59 -165 l-5 -33 381 0 c363 0 380 1 365 18 -41
45 -28 215 25 321 25 51 44 74 82 99 55 36 54 41 -3 12 -21 -10 -42 -16 -46
-12 -5 4 -6 2 -2 -4 3 -6 -7 -10 -27 -11 -18 -1 -48 -9 -66 -18 -18 -9 -57
-19 -87 -21 -30 -2 -74 -13 -98 -25 -38 -19 -48 -20 -74 -9 -23 9 -32 21 -37
46 -8 46 3 85 26 91 12 3 20 14 20 27 0 27 27 66 46 66 10 0 13 7 8 25 -9 35
20 65 61 65 38 0 119 -70 168 -144 18 -27 39 -52 47 -54 12 -4 11 0 -3 19 -9
13 -26 41 -37 61 -11 20 -47 60 -80 89 -46 41 -60 60 -60 81 0 15 5 30 12 34
18 11 86 5 116 -10 36 -19 82 -70 82 -91 0 -18 23 -45 38 -45 6 0 13 -13 17
-30 4 -16 11 -30 17 -30 6 0 8 -6 5 -14 -7 -17 20 -43 48 -47 11 -1 52 2 90 9
62 10 181 25 301 39 35 4 154 -21 154 -32 0 -3 -22 -38 -49 -79 -34 -53 -51
-90 -56 -124 -6 -44 -10 -50 -48 -70 -23 -12 -51 -23 -62 -25 -13 -2 -19 -9
-17 -20 2 -11 -4 -17 -15 -17 -10 0 -41 -19 -68 -43 -47 -40 -53 -43 -105 -41
-30 1 -59 -2 -65 -6 -17 -14 -89 -24 -81 -11 4 6 1 11 -6 11 -56 0 -77 213
-32 325 17 43 -25 -7 -52 -60 -44 -92 -42 -215 5 -268 8 -10 35 -32 59 -48
l43 -29 1225 0 1224 0 0 1860 0 1860 -1910 0 -1910 0 0 -796z m2396 615 c60
-13 100 -17 107 -11 27 21 75 22 100 2 14 -11 32 -20 41 -20 19 0 21 -11 4
-28 -9 -9 -7 -12 12 -13 128 -4 140 -10 174 -74 11 -23 35 -62 52 -87 27 -42
31 -55 33 -130 1 -46 8 -110 17 -143 8 -33 20 -77 25 -97 10 -38 23 -135 20
-153 0 -5 -2 -42 -4 -82 -1 -39 -5 -74 -9 -78 -3 -4 -4 -23 -1 -43 5 -30 4
-34 -10 -29 -13 5 -17 0 -17 -22 0 -16 -7 -42 -15 -57 -8 -16 -15 -36 -15 -44
0 -9 -5 -21 -11 -27 -10 -10 -9 -51 4 -149 2 -17 14 -48 26 -68 18 -29 20 -37
9 -41 -10 -4 -13 -16 -10 -37 3 -19 1 -29 -6 -25 -16 10 -21 -29 -7 -56 11
-22 10 -23 -11 -19 -13 2 -21 8 -18 13 3 5 -1 6 -9 3 -10 -3 -17 4 -21 22 -4
14 -6 27 -4 28 2 1 14 7 28 13 18 9 20 12 8 12 -22 1 -24 29 -3 37 8 4 12 10
9 15 -3 5 -9 7 -14 4 -5 -3 -15 3 -22 12 -7 10 -32 31 -55 46 -24 15 -43 32
-43 37 0 5 -6 7 -14 4 -10 -4 -22 8 -35 34 -11 23 -25 43 -31 47 -13 8 -13
122 0 130 6 3 10 2 10 -4 0 -5 3 -17 7 -27 4 -10 2 -15 -3 -11 -7 4 -8 -12 -4
-44 4 -28 11 -54 17 -57 6 -4 13 -17 17 -29 4 -13 12 -23 17 -23 6 0 8 4 5 9
-4 5 -10 36 -14 70 -7 48 -6 58 4 50 9 -8 10 -2 2 28 -6 21 -11 54 -12 73 -1
19 -5 40 -9 47 -4 6 -3 23 3 38 12 33 13 56 1 37 -4 -8 -11 -13 -15 -13 -3 1
-7 -2 -7 -6 -1 -5 -10 -14 -20 -21 -11 -7 -19 -17 -19 -22 0 -18 -42 -59 -74
-71 -17 -7 -51 -21 -75 -32 -43 -18 -45 -18 -58 -1 -7 10 -13 33 -13 51 0 27
4 33 18 31 12 -2 16 3 14 17 -1 11 -3 30 -4 42 0 19 -3 20 -14 8 -8 -7 -14
-20 -14 -29 0 -8 -9 -18 -20 -21 -11 -3 -20 -13 -20 -21 0 -8 -7 -14 -16 -14
-11 0 -14 6 -9 21 7 21 6 21 -16 5 -13 -9 -24 -20 -24 -24 -1 -4 -7 -17 -14
-30 -7 -13 -10 -30 -7 -38 3 -8 -1 -14 -11 -14 -12 0 -14 -7 -10 -29 4 -21 1
-33 -12 -46 -13 -11 -21 -13 -26 -6 -3 6 -2 11 3 11 6 0 13 7 16 16 4 11 0 15
-16 12 -14 -2 -24 -12 -28 -28 -4 -17 -12 -24 -24 -22 -13 2 -17 -2 -14 -20 2
-17 -2 -23 -15 -22 -14 2 -15 -1 -6 -12 6 -7 7 -19 3 -26 -5 -7 -8 -22 -7 -33
1 -15 0 -16 -3 -3 -7 22 -34 12 -34 -12 0 -21 -64 -65 -80 -55 -6 4 -18 -1
-25 -11 -9 -12 -14 -14 -15 -6 0 9 -5 10 -19 2 -29 -15 -58 -12 -65 6 -5 14
-8 14 -28 0 -12 -9 -31 -16 -42 -16 -36 0 -96 -34 -90 -51 3 -12 -3 -18 -26
-21 -24 -4 -30 -1 -30 14 0 10 -4 18 -10 18 -5 0 -10 -9 -10 -20 0 -11 -5 -20
-11 -20 -6 0 -9 -7 -5 -15 8 -21 -17 -19 -47 5 -35 28 -40 59 -21 139 11 53
13 75 4 90 -6 12 -10 40 -10 64 1 23 -2 65 -6 94 -8 66 3 166 19 160 7 -2 17
-13 22 -24 l11 -21 59 20 c33 11 68 27 78 36 19 16 22 58 7 82 -8 13 -10 12
-10 -3 0 -10 -4 -15 -10 -12 -5 3 -10 1 -10 -5 0 -7 -27 -9 -89 -4 -81 6 -90
5 -99 -12 -5 -11 -7 -25 -5 -31 7 -19 -11 -16 -41 8 -40 31 -33 83 18 133 11
12 45 49 74 83 l52 62 -32 3 c-30 3 -33 6 -36 42 -3 35 -1 38 17 33 15 -3 21
0 21 10 0 11 -7 14 -25 9 -32 -8 -31 0 1 48 35 52 123 226 115 227 -3 1 -9 1
-12 1 -17 -3 -19 52 -4 75 63 96 237 169 460 192 120 12 118 13 221 -10z m21
-1051 c-3 -8 -6 -5 -6 6 -1 11 2 17 5 13 3 -3 4 -12 1 -19z m223 -12 c0 -2 -7
-7 -16 -10 -8 -3 -12 -2 -9 4 6 10 25 14 25 6z m-127 -67 c-6 -6 -9 -18 -6
-25 7 -18 -7 -17 -31 1 -15 11 -16 15 -5 19 8 2 21 7 29 9 23 8 25 8 13 -4z
m32 -59 c-6 -9 37 -105 55 -124 6 -5 15 -4 23 3 12 9 16 8 21 -6 4 -10 2 -19
-3 -21 -6 -2 -11 -11 -11 -21 0 -9 -6 -23 -12 -30 -11 -11 -8 -13 15 -9 15 3
27 3 27 0 0 -8 -78 -96 -189 -215 -56 -60 -120 -136 -142 -168 -71 -104 -182
-300 -252 -441 -37 -76 -73 -138 -79 -138 -7 0 -9 20 -5 60 6 65 40 135 87
180 17 15 30 40 34 65 5 38 3 42 -36 77 -38 33 -44 35 -62 22 -29 -20 -33 -18
-40 21 -9 49 -31 44 -46 -11 -19 -67 -36 -42 -22 33 27 143 21 177 -45 249
-63 70 -66 76 -16 38 31 -23 58 -55 69 -79 10 -22 21 -42 24 -45 9 -9 30 -44
40 -69 15 -34 21 -21 10 20 -11 38 -9 82 5 112 5 12 2 22 -9 30 -8 7 -19 28
-23 47 -6 35 -6 35 17 19 13 -9 27 -22 31 -30 4 -8 24 -48 43 -89 21 -43 36
-65 36 -52 0 16 4 20 17 15 12 -5 15 -2 10 10 -6 16 13 67 25 67 3 0 9 -14 13
-30 l7 -31 78 78 c43 43 76 82 73 86 -3 5 4 22 16 38 20 26 20 29 4 29 -15 1
-14 3 5 13 23 13 58 67 43 67 -4 0 -8 14 -9 30 0 20 4 30 14 30 8 0 19 11 24
24 11 30 75 98 84 89 3 -4 6 3 6 15 0 11 7 28 16 36 17 18 39 22 29 6z m-797
-350 c12 -20 12 -21 -13 -4 -28 18 -31 24 -12 24 7 0 18 -9 25 -20z m1292 5
c11 -13 11 -18 0 -28 -10 -9 -11 -9 -6 1 9 15 -60 17 -69 2 -4 -7 3 -9 22 -5
19 5 24 4 14 -3 -10 -8 -7 -11 17 -17 20 -4 39 -20 58 -48 15 -23 65 -83 111
-133 86 -95 110 -129 46 -66 -40 39 -64 46 -85 23 -11 -12 -10 -13 7 -7 14 5
17 4 9 -4 -13 -13 -47 -2 -38 12 3 5 0 8 -7 7 -30 -5 -90 14 -100 32 -5 11
-16 19 -24 19 -8 0 -15 5 -15 10 0 6 6 10 13 9 26 -3 38 1 31 12 -3 6 -17 8
-30 5 -29 -8 -32 7 -5 20 17 8 17 11 5 22 -11 10 -14 10 -14 -1 0 -9 -12 -14
-32 -15 -37 -1 -59 13 -52 32 3 8 -4 16 -17 19 -13 4 -20 9 -16 13 4 4 18 1
32 -6 37 -20 44 -3 10 26 -19 16 -23 23 -12 20 11 -3 31 -8 45 -11 26 -5 26
-5 5 6 -25 13 -32 35 -9 26 8 -3 20 1 26 9 7 8 21 14 31 14 11 0 19 5 19 10 0
15 16 12 30 -5z m-110 -185 c0 -5 -2 -10 -4 -10 -3 0 -8 5 -11 10 -3 6 -1 10
4 10 6 0 11 -4 11 -10z m-1135 -102 c-16 -6 -35 -18 -41 -26 -6 -8 -16 -12
-22 -8 -7 4 -12 3 -12 -2 0 -14 -65 -45 -81 -40 -16 6 146 88 170 87 9 0 3 -5
-14 -11z m-201 -103 c-16 -14 -33 -25 -39 -25 -12 1 46 50 59 50 5 0 -4 -11
-20 -25z m-1044 -1350 c-7 -9 -15 -13 -17 -11 -7 7 7 26 19 26 6 0 6 -6 -2
-15z"/>
<path d="M2527 3513 c-12 -12 5 -23 34 -23 21 0 28 4 23 12 -5 8 -2 9 10 5 9
-4 15 -3 12 1 -6 10 -71 14 -79 5z"/>
<path d="M2228 3503 c7 -3 16 -2 19 1 4 3 -2 6 -13 5 -11 0 -14 -3 -6 -6z"/>
<path d="M2268 3503 c7 -3 16 -2 19 1 4 3 -2 6 -13 5 -11 0 -14 -3 -6 -6z"/>
<path d="M2340 3500 c0 -5 -13 -22 -30 -37 -32 -28 -39 -46 -15 -37 11 5 13 2
9 -10 -5 -12 -2 -15 10 -10 11 4 16 1 16 -10 0 -24 15 -19 28 9 9 19 9 32 0
52 -6 16 -10 34 -9 41 1 6 -1 12 -4 12 -3 0 -5 -4 -5 -10z"/>
<path d="M2274 3465 c-10 -8 -14 -15 -8 -15 6 0 17 7 24 15 16 19 9 19 -16 0z"/>
<path d="M2197 3463 c-12 -3 -16 -11 -12 -23 3 -10 -1 -24 -9 -32 -8 -8 -11
-20 -7 -27 5 -7 14 1 27 24 10 19 22 35 26 35 5 0 8 7 8 15 0 15 -2 16 -33 8z"/>
<path d="M1940 3430 c0 -5 -15 -10 -33 -10 -19 0 -56 -11 -83 -25 -27 -14 -55
-25 -61 -25 -14 0 -15 -1 -19 -47 -1 -18 0 -33 3 -33 3 0 22 15 44 33 35 30
77 45 169 60 8 1 21 10 28 20 7 9 18 15 23 12 5 -4 9 -2 9 3 0 6 -7 13 -16 16
-25 9 -64 7 -64 -4z"/>
<path d="M2070 3422 c-39 -6 -49 -22 -13 -22 18 0 35 5 38 11 9 14 5 16 -25
11z"/>
<path d="M2220 3380 c0 -5 5 -10 11 -10 5 0 7 5 4 10 -3 6 -8 10 -11 10 -2 0
-4 -4 -4 -10z"/>
<path d="M2090 3370 c-13 -8 -13 -10 2 -10 9 0 20 5 23 10 8 13 -5 13 -25 0z"/>
<path d="M2445 3339 c-4 -17 -4 -33 -1 -36 3 -4 6 0 7 8 1 8 4 3 8 -10 l6 -23
14 25 c12 22 11 27 -7 45 l-21 21 -6 -30z"/>
<path d="M2739 3344 c-9 -30 32 -96 72 -117 33 -19 34 -19 11 0 -22 18 -22 20
-8 48 9 17 16 37 15 45 0 8 -7 0 -15 -17 -17 -39 -34 -43 -34 -8 0 15 -6 25
-14 25 -8 0 -16 10 -18 23 -3 21 -4 21 -9 1z"/>
<path d="M2680 3327 c0 -9 5 -17 11 -17 6 0 19 -10 30 -22 10 -13 18 -18 19
-12 0 5 -13 23 -30 39 -23 22 -30 25 -30 12z"/>
<path d="M2875 3282 c4 -8 10 -25 14 -40 5 -19 9 -22 13 -11 3 8 -3 26 -14 40
-11 13 -17 18 -13 11z"/>
<path d="M2815 3140 c4 -27 14 -50 26 -59 11 -8 19 -25 19 -42 0 -19 5 -29 15
-29 8 0 12 -6 9 -14 -3 -8 -1 -17 4 -20 15 -9 6 67 -13 107 -9 20 -21 34 -26
31 -5 -3 -6 1 -3 9 2 7 -5 25 -16 38 l-21 24 6 -45z"/>
<path d="M2893 3146 c7 -14 13 -23 15 -21 7 6 -9 45 -18 45 -4 0 -3 -11 3 -24z"/>
<path d="M2398 3139 c5 -13 7 -31 4 -39 -3 -8 -1 -12 3 -8 4 4 21 -14 38 -40
17 -26 32 -49 34 -51 2 -2 6 -2 9 2 4 3 -10 31 -30 61 -20 30 -36 59 -36 64 0
5 -7 15 -15 22 -14 11 -14 10 -7 -11z"/>
<path d="M1821 3038 c-23 -25 -28 -38 -24 -60 7 -37 -4 -78 -22 -78 -9 0 -15
-9 -15 -24 0 -17 11 -30 36 -45 l36 -21 -4 41 c-2 34 1 44 20 56 20 14 22 14
22 -1 0 -9 5 -16 10 -16 6 0 10 6 10 13 0 8 3 7 10 -3 7 -12 15 -13 37 -4 22
8 32 8 41 -2 9 -10 19 -10 41 -3 34 12 32 35 -5 70 -27 25 -130 44 -138 25 -3
-7 -5 -6 -5 1 -1 18 13 23 63 25 25 1 46 6 46 9 0 19 -56 49 -91 49 -30 0 -44
-7 -68 -32z m149 -75 c0 -7 5 -13 10 -13 6 0 10 -5 10 -10 0 -6 -13 -4 -30 5
-16 8 -36 15 -45 15 -8 0 -15 5 -15 10 0 6 16 10 35 8 21 -1 35 -7 35 -15z"/>
<path d="M2814 3043 c3 -10 8 -30 12 -45 3 -16 10 -25 15 -23 5 3 11 -5 15
-19 3 -13 12 -27 20 -30 8 -3 13 -2 11 2 -22 46 -46 100 -51 115 -3 9 -10 17
-16 17 -6 0 -9 -8 -6 -17z"/>
<path d="M2015 2980 c30 -20 55 -26 55 -14 0 14 -36 33 -60 34 -25 0 -25 0 5
-20z"/>
<path d="M2510 2970 c0 -5 5 -10 11 -10 5 0 7 5 4 10 -3 6 -8 10 -11 10 -2 0
-4 -4 -4 -10z"/>
<path d="M2541 2964 c0 -11 3 -14 6 -6 3 7 2 16 -1 19 -3 4 -6 -2 -5 -13z"/>
<path d="M1661 2950 c-9 -5 -7 -9 8 -13 12 -3 23 -2 26 3 7 11 -19 20 -34 10z"/>
<path d="M2870 2901 c0 -5 7 -11 15 -15 8 -3 15 -1 15 3 0 5 -7 11 -15 15 -8
3 -15 1 -15 -3z"/>
<path d="M2474 2820 c-7 -30 -18 -38 -29 -20 -10 17 -24 11 -41 -16 -14 -21
-15 -27 -4 -34 11 -7 10 -13 -4 -35 -19 -29 -15 -45 8 -26 11 9 15 9 19 -1 4
-11 6 -10 6 0 1 8 6 10 14 5 6 -4 28 -8 47 -8 31 0 35 -3 32 -25 -2 -14 -12
-32 -23 -42 -22 -19 -25 -44 -6 -51 7 -3 35 -3 61 0 42 5 50 10 61 36 9 21 10
40 3 64 -7 27 -6 39 6 52 9 10 16 25 16 34 0 9 6 17 13 17 16 0 -14 20 -31 20
-9 0 -11 -7 -7 -19 5 -17 3 -19 -22 -12 -15 5 -27 13 -25 20 1 6 -3 10 -9 9
-11 -3 -23 14 -33 45 -5 17 -7 17 -22 3 -19 -20 -25 -20 -18 -1 4 8 3 15 0 15
-4 0 -9 -13 -12 -30z"/>
<path d="M1654 2735 c-17 -13 -17 -14 -1 -15 9 0 17 5 17 11 0 5 5 7 10 4 6
-3 10 -1 10 4 0 15 -13 14 -36 -4z"/>
<path d="M2680 2721 c0 -12 5 -21 10 -21 6 0 10 6 10 14 0 8 -4 18 -10 21 -5
3 -10 -3 -10 -14z"/>
<path d="M2930 2691 c0 -16 5 -33 10 -36 6 -4 10 6 10 24 0 16 -4 33 -10 36
-6 4 -10 -6 -10 -24z"/>
<path d="M2810 2605 c0 -16 6 -25 15 -25 16 0 19 9 9 34 -9 25 -24 19 -24 -9z"/>
<path d="M2860 2530 c0 -6 -4 -8 -10 -5 -5 3 -10 -1 -10 -10 0 -9 4 -14 9 -11
5 4 11 1 13 -6 3 -7 7 -2 10 10 4 12 2 25 -3 28 -5 3 -9 0 -9 -6z"/>
<path d="M1860 2480 c0 -5 5 -10 10 -10 6 0 10 5 10 10 0 6 -4 10 -10 10 -5 0
-10 -4 -10 -10z"/>
<path d="M1655 2440 c-4 -6 -14 -9 -23 -8 -12 2 -17 -4 -17 -22 0 -22 4 -25
30 -23 33 3 143 3 189 0 16 -1 31 3 33 9 6 18 -48 36 -121 40 -38 3 -72 7 -77
9 -4 3 -11 1 -14 -5z"/>
<path d="M1680 2330 c0 -5 7 -10 16 -10 8 0 12 5 9 10 -3 6 -10 10 -16 10 -5
0 -9 -4 -9 -10z"/>
<path d="M1707 2146 c-4 -10 -5 -21 -2 -24 9 -9 17 6 13 25 -3 17 -4 17 -11
-1z"/>
<path d="M2585 2120 c-3 -6 1 -7 9 -4 18 7 21 14 7 14 -6 0 -13 -4 -16 -10z"/>
<path d="M2370 2040 c0 -5 7 -10 16 -10 8 0 12 5 9 10 -3 6 -10 10 -16 10 -5
0 -9 -4 -9 -10z"/>
<path d="M2915 1880 c-3 -5 1 -10 9 -10 9 0 16 5 16 10 0 6 -4 10 -9 10 -6 0
-13 -4 -16 -10z"/>
<path d="M3040 1810 c0 -5 9 -14 19 -20 25 -13 31 -13 31 0 0 6 -7 10 -15 10
-8 0 -15 5 -15 10 0 6 -4 10 -10 10 -5 0 -10 -4 -10 -10z"/>
<path d="M3125 1760 c3 -5 8 -10 11 -10 2 0 4 5 4 10 0 6 -5 10 -11 10 -5 0
-7 -4 -4 -10z"/>
</g>
</svg>
